{
	"asset":{
		"version":"2.0",
		"generator":"Created using the official Cinema 4D glTF Exporter 1.000x284978"
	},
	"scenes":[{
		"nodes":[0,
		4,
		8]
	}],
	"nodes":[{
		"rotation":[0.0,
		0.0,
		0.0,
		-1.0],
		"name":"풍등3",
		"translation":[-2051.42431640625,
		211.7233123779297,
		0.0],
		"scale":[1.0,
		1.0,
		1.0],
		"children":[1,
		2]
	},
	{
		"rotation":[0.0,
		0.0,
		0.0,
		-1.0],
		"name":"Torus.1",
		"translation":[0.0,
		40.64455032348633,
		0.0],
		"scale":[1.0,
		1.0,
		1.0],
		"mesh":0
	},
	{
		"rotation":[0.0,
		0.0,
		0.0,
		-1.0],
		"name":"Loft",
		"translation":[0.0,
		-40.64455032348633,
		0.0],
		"scale":[1.0,
		1.0,
		1.0],
		"children":[3]
	},
	{
		"name":"Loft",
		"mesh":1
	},
	{
		"rotation":[0.0,
		0.0,
		0.0,
		-1.0],
		"name":"풍등2",
		"translation":[0.0,
		538.3468627929688,
		0.0],
		"scale":[1.0,
		1.0,
		1.0],
		"children":[5,
		6]
	},
	{
		"rotation":[0.0,
		0.0,
		0.0,
		-1.0],
		"name":"Torus",
		"translation":[0.0,
		50.841251373291019,
		0.0],
		"scale":[1.0,
		1.0,
		1.0],
		"mesh":2
	},
	{
		"rotation":[0.0,
		0.0,
		0.0,
		-1.0],
		"name":"Loft.1",
		"translation":[0.0,
		-50.841251373291019,
		0.0],
		"scale":[1.0,
		1.0,
		1.0],
		"children":[7]
	},
	{
		"name":"Loft.1",
		"mesh":3
	},
	{
		"rotation":[0.0,
		0.0,
		0.0,
		-1.0],
		"name":"풍등1",
		"translation":[1096.7789306640626,
		375.934814453125,
		0.0],
		"scale":[1.0,
		1.0,
		1.0],
		"children":[9,
		10]
	},
	{
		"rotation":[0.0,
		0.0,
		0.0,
		-1.0],
		"name":"Torus",
		"translation":[0.0,
		-171.57351684570313,
		0.0],
		"scale":[1.0,
		1.0,
		1.0],
		"mesh":4
	},
	{
		"rotation":[0.0,
		0.0,
		0.0,
		-1.0],
		"name":"Loft.1",
		"translation":[0.0,
		230.07371520996095,
		0.0],
		"scale":[1.0,
		1.0,
		1.0],
		"mesh":5
	}],
	"meshes":[{
		"name":"Torus.1",
		"primitives":[{
			"attributes":{
				"POSITION":1,
				"NORMAL":2,
				"TEXCOORD_0":3
			},
			"indices":0
		}]
	},
	{
		"name":"Loft",
		"primitives":[{
			"attributes":{
				"POSITION":5,
				"NORMAL":6,
				"TEXCOORD_0":7
			},
			"indices":4,
			"material":0
		}]
	},
	{
		"name":"Torus",
		"primitives":[{
			"attributes":{
				"POSITION":9,
				"NORMAL":10,
				"TEXCOORD_0":11
			},
			"indices":8
		}]
	},
	{
		"name":"Loft.1",
		"primitives":[{
			"attributes":{
				"POSITION":13,
				"NORMAL":14,
				"TEXCOORD_0":15
			},
			"indices":12,
			"material":0
		}]
	},
	{
		"name":"Torus",
		"primitives":[{
			"attributes":{
				"POSITION":17,
				"NORMAL":18,
				"TEXCOORD_0":19
			},
			"indices":16,
			"material":1
		}]
	},
	{
		"name":"Loft.1",
		"primitives":[{
			"attributes":{
				"POSITION":21,
				"NORMAL":22,
				"TEXCOORD_0":23
			},
			"indices":20,
			"material":0
		}]
	}],
	"accessors":[{
		"bufferView":0,
		"type":"SCALAR",
		"componentType":5123,
		"count":3072,
		"byteOffset":0,
		"min":[0],
		"max":[560]
	},
	{
		"bufferView":1,
		"type":"VEC3",
		"componentType":5126,
		"count":561,
		"byteOffset":0,
		"min":[-141.37384033203126,
		-6.1571574211120609,
		-141.37384033203126],
		"max":[141.37384033203126,
		6.1571574211120609,
		141.37384033203126]
	},
	{
		"bufferView":1,
		"type":"VEC3",
		"componentType":5126,
		"count":561,
		"byteOffset":12,
		"min":[-1.0,
		-0.9999786615371704,
		-1.0],
		"max":[1.0,
		0.9999786615371704,
		1.0]
	},
	{
		"bufferView":1,
		"type":"VEC2",
		"componentType":5126,
		"count":561,
		"byteOffset":24,
		"min":[0.0,
		0.0],
		"max":[1.0,
		1.0]
	},
	{
		"bufferView":2,
		"type":"SCALAR",
		"componentType":5123,
		"count":3210,
		"byteOffset":0,
		"min":[0],
		"max":[606]
	},
	{
		"bufferView":3,
		"type":"VEC3",
		"componentType":5126,
		"count":607,
		"byteOffset":0,
		"min":[-200.4296417236328,
		85.3597640991211,
		-200.4296417236328],
		"max":[200.4296417236328,
		567.65869140625,
		200.4296417236328]
	},
	{
		"bufferView":3,
		"type":"VEC3",
		"componentType":5126,
		"count":607,
		"byteOffset":12,
		"min":[-0.9999020099639893,
		-0.33622342348098757,
		-0.9999020099639893],
		"max":[0.9999020099639893,
		1.0,
		0.9999020099639893]
	},
	{
		"bufferView":3,
		"type":"VEC2",
		"componentType":5126,
		"count":607,
		"byteOffset":24,
		"min":[0.0,
		0.0],
		"max":[1.0,
		1.0]
	},
	{
		"bufferView":4,
		"type":"SCALAR",
		"componentType":5123,
		"count":3072,
		"byteOffset":0,
		"min":[0],
		"max":[560]
	},
	{
		"bufferView":5,
		"type":"VEC3",
		"componentType":5126,
		"count":561,
		"byteOffset":0,
		"min":[-106.15596771240235,
		-4.623337745666504,
		-106.15596771240235],
		"max":[106.15596771240235,
		4.623337745666504,
		106.15596771240235]
	},
	{
		"bufferView":5,
		"type":"VEC3",
		"componentType":5126,
		"count":561,
		"byteOffset":12,
		"min":[-1.0,
		-0.9999787211418152,
		-1.0],
		"max":[1.0,
		0.9999787211418152,
		1.0]
	},
	{
		"bufferView":5,
		"type":"VEC2",
		"componentType":5126,
		"count":561,
		"byteOffset":24,
		"min":[0.0,
		0.0],
		"max":[1.0,
		1.0]
	},
	{
		"bufferView":6,
		"type":"SCALAR",
		"componentType":5123,
		"count":2634,
		"byteOffset":0,
		"min":[0],
		"max":[504]
	},
	{
		"bufferView":7,
		"type":"VEC3",
		"componentType":5126,
		"count":505,
		"byteOffset":0,
		"min":[-201.28500366210938,
		103.23487091064453,
		-201.28500366210938],
		"max":[201.28500366210938,
		567.65869140625,
		201.28500366210938]
	},
	{
		"bufferView":7,
		"type":"VEC3",
		"componentType":5126,
		"count":505,
		"byteOffset":12,
		"min":[-0.9994626641273499,
		-0.33866849541664126,
		-0.9994626641273499],
		"max":[0.9994626641273499,
		1.0,
		0.9994626641273499]
	},
	{
		"bufferView":7,
		"type":"VEC2",
		"componentType":5126,
		"count":505,
		"byteOffset":24,
		"min":[0.0,
		0.0],
		"max":[1.0,
		1.0]
	},
	{
		"bufferView":8,
		"type":"SCALAR",
		"componentType":5123,
		"count":4608,
		"byteOffset":0,
		"min":[0],
		"max":[844]
	},
	{
		"bufferView":9,
		"type":"VEC3",
		"componentType":5126,
		"count":845,
		"byteOffset":0,
		"min":[-126.83077239990235,
		-3.626085042953491,
		-126.83077239990235],
		"max":[126.83077239990235,
		3.626085042953491,
		126.83077239990235]
	},
	{
		"bufferView":9,
		"type":"VEC3",
		"componentType":5126,
		"count":845,
		"byteOffset":12,
		"min":[-1.0,
		-0.9999904632568359,
		-1.0],
		"max":[1.0,
		0.9999904632568359,
		1.0]
	},
	{
		"bufferView":9,
		"type":"VEC2",
		"componentType":5126,
		"count":845,
		"byteOffset":24,
		"min":[0.0,
		0.0],
		"max":[1.0,
		1.0]
	},
	{
		"bufferView":10,
		"type":"SCALAR",
		"componentType":5123,
		"count":2442,
		"byteOffset":0,
		"min":[0],
		"max":[493]
	},
	{
		"bufferView":11,
		"type":"VEC3",
		"componentType":5126,
		"count":494,
		"byteOffset":0,
		"min":[-202.20391845703126,
		-400.9271545410156,
		-202.55715942382813],
		"max":[202.20391845703126,
		148.8549041748047,
		202.55715942382813]
	},
	{
		"bufferView":11,
		"type":"VEC3",
		"componentType":5126,
		"count":494,
		"byteOffset":12,
		"min":[-0.999187707901001,
		-0.44778504967689516,
		-0.9989347457885742],
		"max":[0.999187707901001,
		0.9999919533729553,
		0.9989347457885742]
	},
	{
		"bufferView":11,
		"type":"VEC2",
		"componentType":5126,
		"count":494,
		"byteOffset":24,
		"min":[0.0,
		0.0],
		"max":[1.0,
		1.0]
	}],
	"bufferViews":[{
		"buffer":0,
		"byteOffset":0,
		"byteLength":6144,
		"target":34963
	},
	{
		"buffer":0,
		"byteOffset":6144,
		"byteLength":17952,
		"target":34962,
		"byteStride":32
	},
	{
		"buffer":1,
		"byteOffset":0,
		"byteLength":6420,
		"target":34963
	},
	{
		"buffer":1,
		"byteOffset":6420,
		"byteLength":19424,
		"target":34962,
		"byteStride":32
	},
	{
		"buffer":2,
		"byteOffset":0,
		"byteLength":6144,
		"target":34963
	},
	{
		"buffer":2,
		"byteOffset":6144,
		"byteLength":17952,
		"target":34962,
		"byteStride":32
	},
	{
		"buffer":3,
		"byteOffset":0,
		"byteLength":5268,
		"target":34963
	},
	{
		"buffer":3,
		"byteOffset":5268,
		"byteLength":16160,
		"target":34962,
		"byteStride":32
	},
	{
		"buffer":4,
		"byteOffset":0,
		"byteLength":9216,
		"target":34963
	},
	{
		"buffer":4,
		"byteOffset":9216,
		"byteLength":27040,
		"target":34962,
		"byteStride":32
	},
	{
		"buffer":5,
		"byteOffset":0,
		"byteLength":4884,
		"target":34963
	},
	{
		"buffer":5,
		"byteOffset":4884,
		"byteLength":15808,
		"target":34962,
		"byteStride":32
	}],
	"buffers":[{
		"uri":"data:application/octet-stream;base64,",
		"byteLength":24096
	},
	{
		"uri":"data:application/octet-stream;base64,",
		"byteLength":25844
	},
	{
		"uri":"data:application/octet-stream;base64,",
		"byteLength":24096
	},
	{
		"uri":"data:application/octet-stream;base64,",
		"byteLength":21428
	},
	{
		"uri":"data:application/octet-stream;base64,",
		"byteLength":36256
	},
	{
		"uri":"data:application/octet-stream;base64,",
		"byteLength":20692
	}],
	"materials":[{
		"pbrMetallicRoughness":{
			"baseColorFactor":[0.88,
			0.616,
			0.8447999999999999,
			0.16000000000000004],
			"metallicFactor":0.0,
			"roughnessFactor":0.5
		},
		"emissiveFactor":[0.0,
		0.0,
		0.0],
		"alphaMode":"BLEND",
		"doubleSided":true,
		"name":"Mat"
	},
	{
		"pbrMetallicRoughness":{
			"baseColorFactor":[0.22,
			0.19800000000000005,
			0.16720000000000002,
			0.9415],
			"metallicFactor":0.0,
			"roughnessFactor":0.5
		},
		"emissiveFactor":[0.0,
		0.0,
		0.0],
		"alphaMode":"BLEND",
		"doubleSided":true,
		"name":"Mat.1"
	}]
}