{
	"asset":{
		"version":"2.0",
		"generator":"Created using the official Cinema 4D glTF Exporter 1.000x284978"
	},
	"scenes":[{
		"nodes":[0]
	}],
	"accessors":[{
		"type":"SCALAR",
		"bufferView":0,
		"componentType":5123,
		"count":5241,
		"byteOffset":0,
		"min":[0],
		"max":[970]
	},
	{
		"type":"VEC3",
		"bufferView":1,
		"componentType":5126,
		"count":971,
		"byteOffset":0,
		"min":[-345.7103576660156,
		157.24368286132813,
		-368.1934814453125],
		"max":[345.2392883300781,
		1006.6513061523438,
		368.1934814453125]
	},
	{
		"type":"VEC3",
		"bufferView":1,
		"componentType":5126,
		"count":971,
		"byteOffset":12,
		"min":[-0.9983135461807251,
		-0.9563007354736328,
		-0.9969334602355957],
		"max":[0.9978141784667969,
		1.0,
		0.9968140125274658]
	},
	{
		"type":"VEC2",
		"bufferView":1,
		"componentType":5126,
		"count":971,
		"byteOffset":24,
		"min":[0.0,
		0.0],
		"max":[1.0,
		1.0]
	}],
	"nodes":[{
		"name":"Loft",
		"children":[1]
	},
	{
		"name":"Loft",
		"mesh":0
	}],
	"meshes":[{
		"name":"Loft",
		"primitives":[{
			"attributes":{
				"POSITION":1,
				"NORMAL":2,
				"TEXCOORD_0":3
			},
			"indices":0,
			"material":0
		}]
	}],
	"bufferViews":[{
		"buffer":0,
		"byteOffset":0,
		"byteLength":10482,
		"target":34963
	},
	{
		"byteStride":32,
		"buffer":0,
		"byteOffset":10484,
		"byteLength":31072,
		"target":34962
	}],
	"buffers":[{
		"uri":"data:application/octet-stream;base64,",
		"byteLength":41556
	}],
	"textures":[{
		"sampler":0,
		"source":0
	}],
	"images":[{
		"uri":"data:image/jpeg;base64,"
	}],
	"samplers":[{
		"magFilter":9729,
		"minFilter":9729,
		"wrapT":10497,
		"wrapS":10497
	}],
	"materials":[{
		"pbrMetallicRoughness":{
			"baseColorTexture":{
				"index":0
			},
			"baseColorFactor":[0.8,
			0.8,
			0.8,
			1.0],
			"metallicFactor":1.0,
			"roughnessFactor":1.0
		},
		"emissiveFactor":[1.0,
		1.0,
		1.0],
		"alphaMode":"OPAQUE",
		"doubleSided":true,
		"name":"Mat.3"
	}]
}