{
	"asset":{
		"version":"2.0",
		"generator":"Created using the official Cinema 4D glTF Exporter 1.000x284978"
	},
	"scenes":[{
		"nodes":[0,
		1]
	}],
	"nodes":[{
		"rotation":[0.0,
		0.0,
		0.0,
		-1.0],
		"name":"Sphere",
		"translation":[0.0,
		259.6944885253906,
		0.0],
		"scale":[1.0,
		1.0,
		1.0],
		"mesh":0
	},
	{
		"rotation":[0.0,
		0.0,
		0.0,
		-1.0],
		"name":"풍등1",
		"translation":[0.0,
		375.934814453125,
		0.0],
		"scale":[1.0,
		1.0,
		1.0],
		"children":[2,
		3]
	},
	{
		"rotation":[0.0,
		0.0,
		0.0,
		-1.0],
		"name":"Torus",
		"translation":[0.0,
		-171.57351684570313,
		0.0],
		"scale":[1.0,
		1.0,
		1.0],
		"mesh":1
	},
	{
		"rotation":[0.0,
		0.0,
		0.0,
		-1.0],
		"name":"Loft.1",
		"translation":[0.0,
		230.07371520996095,
		0.0],
		"scale":[1.0,
		1.0,
		1.0],
		"mesh":2
	}],
	"meshes":[{
		"name":"Sphere",
		"primitives":[{
			"attributes":{
				"POSITION":1,
				"NORMAL":2,
				"TEXCOORD_0":3
			},
			"indices":0,
			"material":0
		}]
	},
	{
		"name":"Torus",
		"primitives":[{
			"attributes":{
				"POSITION":5,
				"NORMAL":6,
				"TEXCOORD_0":7
			},
			"indices":4,
			"material":1
		}]
	},
	{
		"name":"Loft.1",
		"primitives":[{
			"attributes":{
				"POSITION":9,
				"NORMAL":10,
				"TEXCOORD_0":11
			},
			"indices":8,
			"material":2
		}]
	}],
	"accessors":[{
		"bufferView":0,
		"type":"SCALAR",
		"componentType":5123,
		"count":672,
		"byteOffset":0,
		"min":[0],
		"max":[150]
	},
	{
		"bufferView":1,
		"type":"VEC3",
		"componentType":5126,
		"count":151,
		"byteOffset":0,
		"min":[-94.90752410888672,
		-94.90752410888672,
		-94.90752410888672],
		"max":[94.90752410888672,
		94.90752410888672,
		94.90752410888672]
	},
	{
		"bufferView":1,
		"type":"VEC3",
		"componentType":5126,
		"count":151,
		"byteOffset":12,
		"min":[-1.0,
		-1.0,
		-1.0],
		"max":[0.9999999403953552,
		1.0,
		1.0]
	},
	{
		"bufferView":1,
		"type":"VEC2",
		"componentType":5126,
		"count":151,
		"byteOffset":24,
		"min":[0.0,
		0.0],
		"max":[1.0,
		1.0]
	},
	{
		"bufferView":2,
		"type":"SCALAR",
		"componentType":5123,
		"count":4608,
		"byteOffset":0,
		"min":[0],
		"max":[844]
	},
	{
		"bufferView":3,
		"type":"VEC3",
		"componentType":5126,
		"count":845,
		"byteOffset":0,
		"min":[-126.83077239990235,
		-3.626085042953491,
		-126.83077239990235],
		"max":[126.83077239990235,
		3.626085042953491,
		126.83077239990235]
	},
	{
		"bufferView":3,
		"type":"VEC3",
		"componentType":5126,
		"count":845,
		"byteOffset":12,
		"min":[-1.0,
		-0.9999904632568359,
		-1.0],
		"max":[1.0,
		0.9999904632568359,
		1.0]
	},
	{
		"bufferView":3,
		"type":"VEC2",
		"componentType":5126,
		"count":845,
		"byteOffset":24,
		"min":[0.0,
		0.0],
		"max":[1.0,
		1.0]
	},
	{
		"bufferView":4,
		"type":"SCALAR",
		"componentType":5123,
		"count":2442,
		"byteOffset":0,
		"min":[0],
		"max":[493]
	},
	{
		"bufferView":5,
		"type":"VEC3",
		"componentType":5126,
		"count":494,
		"byteOffset":0,
		"min":[-202.20391845703126,
		-400.9271545410156,
		-202.55715942382813],
		"max":[202.20391845703126,
		148.8549041748047,
		202.55715942382813]
	},
	{
		"bufferView":5,
		"type":"VEC3",
		"componentType":5126,
		"count":494,
		"byteOffset":12,
		"min":[-0.999187707901001,
		-0.44778504967689516,
		-0.9989347457885742],
		"max":[0.999187707901001,
		0.9999919533729553,
		0.9989347457885742]
	},
	{
		"bufferView":5,
		"type":"VEC2",
		"componentType":5126,
		"count":494,
		"byteOffset":24,
		"min":[0.0,
		0.0],
		"max":[1.0,
		1.0]
	}],
	"bufferViews":[{
		"buffer":0,
		"byteOffset":0,
		"byteLength":1344,
		"target":34963
	},
	{
		"buffer":0,
		"byteOffset":1344,
		"byteLength":4832,
		"target":34962,
		"byteStride":32
	},
	{
		"buffer":1,
		"byteOffset":0,
		"byteLength":9216,
		"target":34963
	},
	{
		"buffer":1,
		"byteOffset":9216,
		"byteLength":27040,
		"target":34962,
		"byteStride":32
	},
	{
		"buffer":2,
		"byteOffset":0,
		"byteLength":4884,
		"target":34963
	},
	{
		"buffer":2,
		"byteOffset":4884,
		"byteLength":15808,
		"target":34962,
		"byteStride":32
	}],
	"buffers":[{
		"uri":"data:application/octet-stream;base64,",
		"byteLength":6176
	},
	{
		"uri":"data:application/octet-stream;base64,",
		"byteLength":36256
	},
	{
		"uri":"data:application/octet-stream;base64,",
		"byteLength":20692
	}],
	"materials":[{
		"pbrMetallicRoughness":{
			"baseColorFactor":[1.0,
			0.8795921984057743,
			0.2775531904346449,
			1.0],
			"metallicFactor":0.0,
			"roughnessFactor":0.5
		},
		"emissiveFactor":[0.0,
		0.0,
		0.0],
		"alphaMode":"OPAQUE",
		"doubleSided":true,
		"name":"Mat.3"
	},
	{
		"pbrMetallicRoughness":{
			"baseColorFactor":[0.22,
			0.19800000000000005,
			0.16720000000000002,
			0.9415],
			"metallicFactor":0.0,
			"roughnessFactor":0.5
		},
		"emissiveFactor":[0.0,
		0.0,
		0.0],
		"alphaMode":"BLEND",
		"doubleSided":true,
		"name":"Mat.1"
	},
	{
		"pbrMetallicRoughness":{
			"baseColorFactor":[0.88,
			0.616,
			0.8447999999999999,
			0.38],
			"metallicFactor":0.0,
			"roughnessFactor":0.5
		},
		"emissiveFactor":[0.15,
		0.15,
		0.15],
		"alphaMode":"BLEND",
		"doubleSided":true,
		"name":"Mat"
	}]
}